<?xml version="1.0" encoding="utf-8"?>
<!-- Generator: Adobe Illustrator 24.0.2, SVG Export Plug-In . SVG Version: 6.00 Build 0)  -->
<svg version="1.1" id="Layer_1" xmlns="http://www.w3.org/2000/svg" xmlns:xlink="http://www.w3.org/1999/xlink" x="0px" y="0px"
	 viewBox="0 0 700 765" style="enable-background:new 0 0 700 765;" xml:space="preserve">
<style type="text/css">
	.st0{fill:#489678;}
	.st1{fill:#D5E9F2;}
	.st2{fill:#AAD7E8;}
	.st3{fill:#002C43;}
	.st4{fill:#0A1419;}
	.st5{fill:#FFFFFF;}
	.st6{fill:#6FC5A2;}
</style>
<g>
	<path class="st0" d="M554.4,731.7c0,14.7-77.1,26.7-172.3,26.7c-95.1,0-172.3-11.9-172.3-26.7c0-14.7,77.1-26.7,172.3-26.7
		C477.3,705,554.4,717,554.4,731.7z"/>
	<path class="st1" d="M510.6,169.6C465.9,105,357,105,357,105s-108.9,0-153.6,64.6c-41.1,59.3-40.7,140.3-40.7,140.3l39.7,50.5H357
		h154.6l39.7-50.5C551.3,309.8,551.7,228.8,510.6,169.6z"/>
	<path class="st2" d="M510.7,169.6c-17.5-25.3-45-40.7-71.8-50.1c13.9,8.6,26.5,19.5,36.2,33.4c41.1,59.3,40.7,140.3,40.7,140.3
		l-39.7,50.5H321.5H189.3l13.1,16.6h154.6h154.6l39.7-50.5C551.4,309.8,551.8,228.8,510.7,169.6z"/>
	<path class="st3" d="M455.7,182.7c-41.7-31.3-155.7-31.3-197.4,0c-45.3,34-43.7,115-43.7,115H357h142.4
		C499.4,297.7,501,216.6,455.7,182.7z"/>
	<path class="st4" d="M215.8,297.7c2.8-26.4,12-70.7,42.6-93.6c41.7-31.3,155.7-31.3,197.4,0c30.5,22.9,39.8,67.1,42.6,93.6h1.2
		c0,0,1.5-81.1-43.7-115c-41.7-31.3-155.7-31.3-197.4,0c-45.3,34-43.7,115-43.7,115H215.8z"/>
	<path class="st1" d="M397.2,117.1c0,3.3-2.7,6.1-6.1,6.1h-68.2c-3.4,0-6.1-2.7-6.1-6.1V95.9c0-3.3,2.7-6.1,6.1-6.1h68.2
		c3.4,0,6.1,2.7,6.1,6.1V117.1z"/>
	<g>
		<polygon class="st1" points="338.9,106 348,21.2 360.2,21.2 375.2,106.5 		"/>
		<path class="st1" d="M369.2,21.2c0,8.1-6.6,14.6-14.8,14.6c-8.1,0-14.8-6.6-14.8-14.6c0-8.1,6.6-14.6,14.8-14.6
			C362.6,6.6,369.2,13.2,369.2,21.2z"/>
		<path class="st2" d="M363.7,9.8c0.9,1.9,1.5,4.1,1.5,6.4c0,8.1-6.6,14.6-14.8,14.6c-3.5,0-6.7-1.2-9.2-3.2
			c2.4,4.9,7.4,8.2,13.3,8.2c8.1,0,14.8-6.6,14.8-14.6C369.2,16.6,367,12.5,363.7,9.8z"/>
	</g>
	<polygon class="st2" points="202.4,360.3 511.7,360.3 551.3,309.8 162.7,309.8 	"/>
	<path class="st2" d="M397.2,107.2c0,2.1-1.4,3.9-3.1,3.9h-34.1c-1.7,0-3.1-1.7-3.1-3.9V93.7c0-2.1,1.4-3.9,3.1-3.9h34.1
		c1.7,0,3.1,1.7,3.1,3.9V107.2z"/>
	<path class="st5" d="M296.1,132.8c-5-9.4-27.4-4-34.7-0.6c-6,2.8-16.8,9-23.7,15.6c-5.5,4.3-10.4,9.4-14.6,15
		c-3.5,4.7-10.2,14.4-5.9,20.6c4.7,6.8,12.6,0.9,16.6-3c10.3-10.2,18.2-21.2,32.1-27.4C272.6,150,302,143.9,296.1,132.8z"/>
	<path class="st5" d="M348.6,12.8c-6.9,1.7-4.3,16.1,4.3,8.3C359.6,15,352.5,11.1,348.6,12.8z"/>
	<path class="st1" d="M567.8,474.6l-60.4-103.4H357.7h-1.3H206.6l-60.4,103.4c0,0,2.6,43.1,17.2,82.5c22.4,60.5,43.8,84.8,43.8,84.8
		l74,28.3l75.2,6.9v0.1c0,0,0.5-0.1,0.7-0.1c0.2,0,0.7,0.1,0.7,0.1V677l75.2-6.9l74-28.3c0,0,26.8-34.3,43.8-84.8
		C564,517.2,567.8,474.6,567.8,474.6z"/>
	<path class="st2" d="M507.4,371.2h-71.2l60.4,103.4c0,0-3.8,42.7-17.2,82.5c-16.9,50.5-24.5,70.5-43.8,84.8
		c-15.9,11.7-74,28.3-74,28.3l-40.3,3.7l34.9,3.2v0.1c0,0,0.5-0.1,0.7-0.1c0.2,0,0.7,0.1,0.7,0.1V677l75.2-6.9l74-28.3
		c0,0,26.8-34.3,43.8-84.8c13.4-39.8,17.2-82.5,17.2-82.5L507.4,371.2z"/>
	<polygon class="st2" points="146.2,474.6 567.8,474.6 551.4,505.6 	"/>
	<path class="st5" d="M230.8,543.1c-1.2-15,9.1-35.7-8.1-43.6c-8.9-4.1-23.9-5.7-30.7,3c-2.5,3.2-3.8,7.3-4,11.5
		c-2.5,10.7,3.3,26.4,6,35.9c3.2,11.3,14.3,51,34.7,40.2C242.5,582.8,231.7,554.2,230.8,543.1z"/>
	<path class="st5" d="M253,392.8c-9.2-13-22.1-8.7-31.3,0.8c-20.4,12.3-42.1,62.7-11.2,67.7c17.8,2.8,23.3-18.7,29.3-30.3
		C245.3,420.2,262,405.5,253,392.8z"/>
	<path class="st1" d="M524.9,371.2c0,0,132.3-81.5,157.7-81.5c25.4,0,15.3,45.4-25.4,95c-39.5,48.1-78.3,76.8-78.3,76.8L524.9,371.2
		z"/>
	<path class="st2" d="M682.6,289.6c-2.5,0-6.2,0.8-10.6,2.3c-0.7,17.7-14.2,46.7-39.3,77.2c-27.1,33-53.9,56.9-68.1,68.6l14.1,23.7
		c0,0,38.9-28.7,78.3-76.8C697.9,335,708,289.6,682.6,289.6z"/>
	<path class="st1" d="M195.1,371.2c0,0-164.5-26.3-184.8-18c-20.3,8.4,3.2,44.2,52.4,73.6c47.7,28.5,75.5,36.3,75.5,36.3
		L195.1,371.2z"/>
	<path class="st2" d="M10.3,353.2c2-0.8,5.2-1.3,9.2-1.5c6.6,15.1,27.1,35.6,57.4,53.7c32.8,19.6,57.7,30.9,80.5,26.8l-19.1,30.9
		c0,0-27.8-7.8-75.5-36.3C13.5,397.4-10,361.5,10.3,353.2z"/>
	<path class="st5" d="M85.5,371.3c-4.7-7.4-21.2-11.8-29-11.4c-4,0.2-6.6,1.6-8.2,3.4c-3.7,2.3-3.3,5.2-0.7,8.2
		c1.3,2.6,3.9,4.9,7.4,5.6l0-0.1C70.4,385.4,97.3,389.9,85.5,371.3z"/>
	<path class="st5" d="M654.2,308.6c-3.5-2.3-13.6,2.8-16.4,4.2c-4.8,2.3-17.2,10.1-19.8,17.4c-2.9,3.9-3.4,7.7,1.4,10
		c7.2,3.5,27.2-12.5,31.5-17.8C653.5,319.2,658.9,311.7,654.2,308.6z"/>
	<path class="st1" d="M206.3,650.7c0,0,26.8,69.5,49.3,71.7c22.5,2.3,23.1-45.3,23.1-45.3L206.3,650.7z"/>
	<path class="st2" d="M260.7,670.2c-0.3,6.7-2.3,39.6-18.1,43.8c4.6,4.8,9.3,8,13.9,8.4c22.5,2.3,23.1-45.3,23.1-45.3L260.7,670.2z"
		/>
	<path class="st1" d="M440.5,677.1c0,0,34.4,52.3,78.6,41.4c18.5-4.6-10.7-67.8-10.7-67.8L440.5,677.1z"/>
	<path class="st2" d="M508.4,650.7l-18.4,7.2c7.4,18.5,19.1,52.8,5.7,56.1c-3.6,0.9-7.2,1.4-10.7,1.5c10.2,4.3,21.8,6.1,34.1,3.1
		C537.6,713.9,508.4,650.7,508.4,650.7z"/>
	<path class="st6" d="M397.3,253c-1.3,0-2.4,1-2.5,2.3c0,0.1-0.4,10.8-7.2,16.3c-6.5,5.3-18.3,7.1-24,7.1c-5.3,0.2-17.5-1.8-24-7.1
		c-6.8-5.6-7.2-16.2-7.2-16.3c0-1.3-1.1-2.3-2.5-2.3c-1.3,0-2.4,1.1-2.3,2.4c0,0.5,0.5,12.9,9,19.8c8.7,7.1,19.9,8.2,25.9,8.2
		c7.2,0,19.5-1.1,28.2-8.2c8.5-7,8.9-19.3,9-19.8C399.6,254.1,398.6,253,397.3,253z"/>
	<g>
		<g>
			<path class="st6" d="M310.9,232.9c-1.9,0-3.4-1.5-3.4-3.3c0,0-0.1-4.2-2.6-8.1c-3.2-5.1-9-7.7-17.1-7.7c-0.1,0-0.1,0-0.2,0
				c-17.4,0.1-19.8,14.6-19.9,15.2c-0.3,1.9-2,3.1-3.9,2.8c-1.9-0.3-3.2-2-2.9-3.9c1.1-7.2,8.1-20.9,26.7-21c0.1,0,0.1,0,0.2,0
				c26,0,26.5,22.3,26.5,22.6C314.3,231.3,312.8,232.9,310.9,232.9C310.9,232.9,310.9,232.9,310.9,232.9z"/>
		</g>
		<g>
			<path class="st6" d="M449.8,232.9c-1.9,0-3.4-1.5-3.4-3.3c0,0-0.1-4.2-2.6-8.1c-3.2-5.1-9-7.7-17.1-7.7c-0.1,0-0.1,0-0.2,0
				c-17.4,0.1-19.8,14.6-19.9,15.2c-0.3,1.9-2,3.1-3.9,2.8c-1.9-0.3-3.2-2-2.9-3.9c1.1-7.2,8.1-20.9,26.7-21c0.1,0,0.1,0,0.2,0
				c26,0,26.5,22.3,26.5,22.6C453.3,231.3,451.8,232.9,449.8,232.9C449.9,232.9,449.8,232.9,449.8,232.9z"/>
		</g>
	</g>
</g>
</svg>
